<svg width="80.000000" height="80.000000" viewBox="0 0 80 80" fill="none" xmlns="http://www.w3.org/2000/svg" xmlns:xlink="http://www.w3.org/1999/xlink">
	<desc>
			Created with Pixso.
	</desc>
	<defs/>
	<path id="Vector" d="M0 40.22C0 60.11 14.44 76.64 33.33 80L33.33 51.11L23.33 51.11L23.33 40L33.33 40L33.33 31.11C33.33 21.11 39.77 15.55 48.89 15.55C51.77 15.55 54.89 16 57.77 16.44L57.77 26.66L52.66 26.66C47.77 26.66 46.66 29.11 46.66 32.22L46.66 40L57.33 40L55.55 51.11L46.66 51.11L46.66 80C65.55 76.64 80 60.11 80 40.22C80 18.1 62 0 40 0C18 0 0 18.1 0 40.22Z" fill="#241400" fill-opacity="1.000000" fill-rule="evenodd"/>
</svg>
