<svg width="280" height="61" viewBox="0 0 280 61" fill="none" xmlns="http://www.w3.org/2000/svg">
<path d="M94.582 18.4V31H93.268V25.186H85.384V31H84.052V18.4H85.384V24.016H93.268V18.4H94.582ZM102.295 31.09C101.383 31.09 100.561 30.886 99.8286 30.478C99.0966 30.058 98.5206 29.482 98.1006 28.75C97.6806 28.018 97.4706 27.19 97.4706 26.266C97.4706 25.342 97.6806 24.514 98.1006 23.782C98.5206 23.05 99.0966 22.48 99.8286 22.072C100.561 21.664 101.383 21.46 102.295 21.46C103.207 21.46 104.029 21.664 104.761 22.072C105.493 22.48 106.063 23.05 106.471 23.782C106.891 24.514 107.101 25.342 107.101 26.266C107.101 27.19 106.891 28.018 106.471 28.75C106.063 29.482 105.493 30.058 104.761 30.478C104.029 30.886 103.207 31.09 102.295 31.09ZM102.295 29.956C102.967 29.956 103.567 29.806 104.095 29.506C104.635 29.194 105.055 28.756 105.355 28.192C105.655 27.628 105.805 26.986 105.805 26.266C105.805 25.546 105.655 24.904 105.355 24.34C105.055 23.776 104.635 23.344 104.095 23.044C103.567 22.732 102.967 22.576 102.295 22.576C101.623 22.576 101.017 22.732 100.477 23.044C99.9486 23.344 99.5286 23.776 99.2166 24.34C98.9166 24.904 98.7666 25.546 98.7666 26.266C98.7666 26.986 98.9166 27.628 99.2166 28.192C99.5286 28.756 99.9486 29.194 100.477 29.506C101.017 29.806 101.623 29.956 102.295 29.956ZM121.518 21.46C122.706 21.46 123.636 21.802 124.308 22.486C124.992 23.17 125.334 24.178 125.334 25.51V31H124.056V25.636C124.056 24.652 123.816 23.902 123.336 23.386C122.868 22.87 122.202 22.612 121.338 22.612C120.354 22.612 119.58 22.918 119.016 23.53C118.452 24.13 118.17 24.964 118.17 26.032V31H116.892V25.636C116.892 24.652 116.652 23.902 116.172 23.386C115.704 22.87 115.032 22.612 114.156 22.612C113.184 22.612 112.41 22.918 111.834 23.53C111.27 24.13 110.988 24.964 110.988 26.032V31H109.71V21.532H110.934V23.26C111.27 22.684 111.738 22.24 112.338 21.928C112.938 21.616 113.628 21.46 114.408 21.46C115.2 21.46 115.884 21.628 116.46 21.964C117.048 22.3 117.486 22.798 117.774 23.458C118.122 22.834 118.62 22.348 119.268 22C119.928 21.64 120.678 21.46 121.518 21.46ZM137.079 26.662H129.159C129.231 27.646 129.609 28.444 130.293 29.056C130.977 29.656 131.841 29.956 132.885 29.956C133.473 29.956 134.013 29.854 134.505 29.65C134.997 29.434 135.423 29.122 135.783 28.714L136.503 29.542C136.083 30.046 135.555 30.43 134.919 30.694C134.295 30.958 133.605 31.09 132.849 31.09C131.877 31.09 131.013 30.886 130.257 30.478C129.513 30.058 128.931 29.482 128.511 28.75C128.091 28.018 127.881 27.19 127.881 26.266C127.881 25.342 128.079 24.514 128.475 23.782C128.883 23.05 129.435 22.48 130.131 22.072C130.839 21.664 131.631 21.46 132.507 21.46C133.383 21.46 134.169 21.664 134.865 22.072C135.561 22.48 136.107 23.05 136.503 23.782C136.899 24.502 137.097 25.33 137.097 26.266L137.079 26.662ZM132.507 22.558C131.595 22.558 130.827 22.852 130.203 23.44C129.591 24.016 129.243 24.772 129.159 25.708H135.873C135.789 24.772 135.435 24.016 134.811 23.44C134.199 22.852 133.431 22.558 132.507 22.558Z" fill="white"/>
<path d="M67.0994 17.6048C66.9683 16.2377 66.9498 13.8832 67.865 13.0925C67.8813 13.078 67.8935 13.0571 67.9078 13.0391C68.656 12.7071 69.1738 12.2411 68.7673 11.6141L57.7305 7L39.8593 10.4474C39.8593 10.4474 37.8129 10.8533 37.9957 15.2647C38.0949 17.6657 38.6377 18.8448 39.1123 19.4252L37.6458 20.0384C37.2388 20.6654 37.7565 21.1315 38.5048 21.463C38.519 21.4815 38.531 21.5023 38.5476 21.5168C39.4622 22.3081 39.4446 24.6624 39.313 26.0297C36.0275 27.3241 37.2069 27.746 37.2069 27.746L37.9276 27.9879C37.4206 28.6236 36.9172 29.8289 37.0115 32.1149C37.1944 36.5255 38.8753 36.8299 38.8753 36.8299L50.5701 42.104L68.222 36.1717C68.222 36.1717 69.4018 35.7492 66.1154 34.4546C65.9832 33.0895 65.9648 30.7355 66.8815 29.9422C66.8984 29.9281 66.9107 29.9067 66.9243 29.889C67.6726 29.557 68.1899 29.0914 67.7833 28.4644L67.0161 28.143C67.5278 27.7148 68.2964 26.5959 68.4168 23.6895C68.4999 21.6903 68.124 20.5195 67.6889 19.8302L69.2054 19.321C69.2055 19.3218 70.3853 18.8993 67.0994 17.6048ZM52.3346 17.5483L55.303 16.7018L65.3345 13.8416L66.829 13.415C66.3515 14.6277 66.3715 16.2874 66.4505 17.3541C66.4678 17.5954 66.4878 17.8157 66.5071 17.9832L64.8712 18.5476L52.2098 22.9178L52.3346 17.5483ZM39.5837 21.8407L41.078 22.2672L50.7118 25.015L51.5535 25.2541L54.0774 25.9739L54.2019 31.3436L41.1887 26.8515L39.9058 26.4091C39.9246 26.2414 39.9446 26.0212 39.9626 25.7793C40.0412 24.7134 40.0616 23.0534 39.5837 21.8407ZM39.0031 15.0524C38.985 13.879 39.1357 13.0304 39.4403 12.599C39.6342 12.3237 39.8629 12.2663 40.0198 12.2663C40.1027 12.2663 40.1624 12.2823 40.1664 12.2823L47.8667 15.7654L51.7084 17.5033L51.5824 22.9104L40.8048 18.718L40.236 18.497C40.2151 18.4888 40.1868 18.4832 40.1649 18.4818C40.1205 18.4774 39.0549 18.3413 39.0031 15.0524ZM50.598 39.7614L39.2519 35.3478C39.2309 35.3394 39.2028 35.3337 39.181 35.3322C39.1358 35.3281 38.0698 35.1921 38.0182 31.904C37.9998 30.7292 38.1513 29.8814 38.4553 29.4496C38.6497 29.1742 38.8785 29.1169 39.0351 29.1169C39.1182 29.1169 39.1777 29.1323 39.182 29.1323C39.182 29.1323 39.1825 29.1323 39.182 29.1323L50.7232 34.3541L50.598 39.7614ZM65.4655 34.2042C65.4834 34.4463 65.5034 34.6663 65.5227 34.8341L51.2252 39.769L51.3501 34.3994L54.4068 33.5274L54.8583 33.6789L56.5502 32.9159L64.3495 30.6922L65.8446 30.2655C65.3666 31.478 65.3864 33.1383 65.4655 34.2042ZM66.2531 26.9066C66.2271 26.9074 66.2011 26.9123 66.1766 26.923L65.0983 27.3419L54.8308 31.3364L54.7052 25.9293L58.0739 24.4048L66.2307 20.714C66.2317 20.7133 66.6597 20.5814 66.9739 21.0247C67.278 21.456 67.4289 22.3046 67.4111 23.478C67.3579 26.7658 66.2919 26.9025 66.2531 26.9066Z" fill="white"/>
</svg>
