<svg width="279" height="61" viewBox="0 0 279 61" fill="none" xmlns="http://www.w3.org/2000/svg">
<path d="M83.052 18.4H84.384V29.848H91.44V31H83.052V18.4ZM97.111 31.09C96.199 31.09 95.377 30.886 94.645 30.478C93.913 30.058 93.337 29.482 92.917 28.75C92.497 28.018 92.287 27.19 92.287 26.266C92.287 25.342 92.497 24.514 92.917 23.782C93.337 23.05 93.913 22.48 94.645 22.072C95.377 21.664 96.199 21.46 97.111 21.46C98.023 21.46 98.845 21.664 99.577 22.072C100.309 22.48 100.879 23.05 101.287 23.782C101.707 24.514 101.917 25.342 101.917 26.266C101.917 27.19 101.707 28.018 101.287 28.75C100.879 29.482 100.309 30.058 99.577 30.478C98.845 30.886 98.023 31.09 97.111 31.09ZM97.111 29.956C97.783 29.956 98.383 29.806 98.911 29.506C99.451 29.194 99.871 28.756 100.171 28.192C100.471 27.628 100.621 26.986 100.621 26.266C100.621 25.546 100.471 24.904 100.171 24.34C99.871 23.776 99.451 23.344 98.911 23.044C98.383 22.732 97.783 22.576 97.111 22.576C96.439 22.576 95.833 22.732 95.293 23.044C94.765 23.344 94.345 23.776 94.033 24.34C93.733 24.904 93.583 25.546 93.583 26.266C93.583 26.986 93.733 27.628 94.033 28.192C94.345 28.756 94.765 29.194 95.293 29.506C95.833 29.806 96.439 29.956 97.111 29.956ZM113.292 21.532V29.848C113.292 31.456 112.896 32.644 112.104 33.412C111.324 34.192 110.142 34.582 108.558 34.582C107.682 34.582 106.848 34.45 106.056 34.186C105.276 33.934 104.64 33.58 104.148 33.124L104.796 32.152C105.252 32.56 105.804 32.878 106.452 33.106C107.112 33.334 107.802 33.448 108.522 33.448C109.722 33.448 110.604 33.166 111.168 32.602C111.732 32.05 112.014 31.186 112.014 30.01V28.804C111.618 29.404 111.096 29.86 110.448 30.172C109.812 30.484 109.104 30.64 108.324 30.64C107.436 30.64 106.626 30.448 105.894 30.064C105.174 29.668 104.604 29.122 104.184 28.426C103.776 27.718 103.572 26.92 103.572 26.032C103.572 25.144 103.776 24.352 104.184 23.656C104.604 22.96 105.174 22.42 105.894 22.036C106.614 21.652 107.424 21.46 108.324 21.46C109.128 21.46 109.854 21.622 110.502 21.946C111.15 22.27 111.672 22.738 112.068 23.35V21.532H113.292ZM108.45 29.506C109.134 29.506 109.752 29.362 110.304 29.074C110.856 28.774 111.282 28.36 111.582 27.832C111.894 27.304 112.05 26.704 112.05 26.032C112.05 25.36 111.894 24.766 111.582 24.25C111.282 23.722 110.856 23.314 110.304 23.026C109.764 22.726 109.146 22.576 108.45 22.576C107.766 22.576 107.148 22.72 106.596 23.008C106.056 23.296 105.63 23.704 105.318 24.232C105.018 24.76 104.868 25.36 104.868 26.032C104.868 26.704 105.018 27.304 105.318 27.832C105.63 28.36 106.056 28.774 106.596 29.074C107.148 29.362 107.766 29.506 108.45 29.506ZM120.736 31.09C119.824 31.09 119.002 30.886 118.27 30.478C117.538 30.058 116.962 29.482 116.542 28.75C116.122 28.018 115.912 27.19 115.912 26.266C115.912 25.342 116.122 24.514 116.542 23.782C116.962 23.05 117.538 22.48 118.27 22.072C119.002 21.664 119.824 21.46 120.736 21.46C121.648 21.46 122.47 21.664 123.202 22.072C123.934 22.48 124.504 23.05 124.912 23.782C125.332 24.514 125.542 25.342 125.542 26.266C125.542 27.19 125.332 28.018 124.912 28.75C124.504 29.482 123.934 30.058 123.202 30.478C122.47 30.886 121.648 31.09 120.736 31.09ZM120.736 29.956C121.408 29.956 122.008 29.806 122.536 29.506C123.076 29.194 123.496 28.756 123.796 28.192C124.096 27.628 124.246 26.986 124.246 26.266C124.246 25.546 124.096 24.904 123.796 24.34C123.496 23.776 123.076 23.344 122.536 23.044C122.008 22.732 121.408 22.576 120.736 22.576C120.064 22.576 119.458 22.732 118.918 23.044C118.39 23.344 117.97 23.776 117.658 24.34C117.358 24.904 117.208 25.546 117.208 26.266C117.208 26.986 117.358 27.628 117.658 28.192C117.97 28.756 118.39 29.194 118.918 29.506C119.458 29.806 120.064 29.956 120.736 29.956ZM136.683 21.532V31H135.459V29.272C135.123 29.848 134.661 30.298 134.073 30.622C133.485 30.934 132.813 31.09 132.057 31.09C130.821 31.09 129.843 30.748 129.123 30.064C128.415 29.368 128.061 28.354 128.061 27.022V21.532H129.339V26.896C129.339 27.892 129.585 28.648 130.077 29.164C130.569 29.68 131.271 29.938 132.183 29.938C133.179 29.938 133.965 29.638 134.541 29.038C135.117 28.426 135.405 27.58 135.405 26.5V21.532H136.683ZM145.248 30.424C145.008 30.64 144.708 30.808 144.348 30.928C144 31.036 143.634 31.09 143.25 31.09C142.362 31.09 141.678 30.85 141.198 30.37C140.718 29.89 140.478 29.212 140.478 28.336V22.612H138.786V21.532H140.478V19.462H141.756V21.532H144.636V22.612H141.756V28.264C141.756 28.828 141.894 29.26 142.17 29.56C142.458 29.848 142.866 29.992 143.394 29.992C143.658 29.992 143.91 29.95 144.15 29.866C144.402 29.782 144.618 29.662 144.798 29.506L145.248 30.424Z" fill="white"/>
<path d="M66.0994 17.6048C65.9683 16.2377 65.9498 13.8832 66.865 13.0925C66.8813 13.078 66.8935 13.0571 66.9078 13.0391C67.656 12.7071 68.1738 12.2411 67.7673 11.6141L56.7305 7L38.8593 10.4474C38.8593 10.4474 36.8129 10.8533 36.9957 15.2647C37.0949 17.6657 37.6377 18.8448 38.1123 19.4252L36.6458 20.0384C36.2388 20.6654 36.7565 21.1315 37.5048 21.463C37.519 21.4815 37.531 21.5023 37.5476 21.5168C38.4622 22.3081 38.4446 24.6624 38.313 26.0297C35.0275 27.3241 36.2069 27.746 36.2069 27.746L36.9276 27.9879C36.4206 28.6236 35.9172 29.8289 36.0115 32.1149C36.1944 36.5255 37.8753 36.8299 37.8753 36.8299L49.5701 42.104L67.222 36.1717C67.222 36.1717 68.4018 35.7492 65.1154 34.4546C64.9832 33.0895 64.9648 30.7355 65.8815 29.9422C65.8984 29.9281 65.9107 29.9067 65.9243 29.889C66.6726 29.557 67.1899 29.0914 66.7833 28.4644L66.0161 28.143C66.5278 27.7148 67.2964 26.5959 67.4168 23.6895C67.4999 21.6903 67.124 20.5195 66.6889 19.8302L68.2054 19.321C68.2055 19.3218 69.3853 18.8993 66.0994 17.6048ZM51.3346 17.5483L54.303 16.7018L64.3345 13.8416L65.829 13.415C65.3515 14.6277 65.3715 16.2874 65.4505 17.3541C65.4678 17.5954 65.4878 17.8157 65.5071 17.9832L63.8712 18.5476L51.2098 22.9178L51.3346 17.5483ZM38.5837 21.8407L40.078 22.2672L49.7118 25.015L50.5535 25.2541L53.0774 25.9739L53.2019 31.3436L40.1887 26.8515L38.9058 26.4091C38.9246 26.2414 38.9446 26.0212 38.9626 25.7793C39.0412 24.7134 39.0616 23.0534 38.5837 21.8407ZM38.0031 15.0524C37.985 13.879 38.1357 13.0304 38.4403 12.599C38.6342 12.3237 38.8629 12.2663 39.0198 12.2663C39.1027 12.2663 39.1624 12.2823 39.1664 12.2823L46.8667 15.7654L50.7084 17.5033L50.5824 22.9104L39.8048 18.718L39.236 18.497C39.2151 18.4888 39.1868 18.4832 39.1649 18.4818C39.1205 18.4774 38.0549 18.3413 38.0031 15.0524ZM49.598 39.7614L38.2519 35.3478C38.2309 35.3394 38.2028 35.3337 38.181 35.3322C38.1358 35.3281 37.0698 35.1921 37.0182 31.904C36.9998 30.7292 37.1513 29.8814 37.4553 29.4496C37.6497 29.1742 37.8785 29.1169 38.0351 29.1169C38.1182 29.1169 38.1777 29.1323 38.182 29.1323C38.182 29.1323 38.1825 29.1323 38.182 29.1323L49.7232 34.3541L49.598 39.7614ZM64.4655 34.2042C64.4834 34.4463 64.5034 34.6663 64.5227 34.8341L50.2252 39.769L50.3501 34.3994L53.4068 33.5274L53.8583 33.6789L55.5502 32.9159L63.3495 30.6922L64.8446 30.2655C64.3666 31.478 64.3864 33.1383 64.4655 34.2042ZM65.2531 26.9066C65.2271 26.9074 65.2011 26.9123 65.1766 26.923L64.0983 27.3419L53.8308 31.3364L53.7052 25.9293L57.0739 24.4048L65.2307 20.714C65.2317 20.7133 65.6597 20.5814 65.9739 21.0247C66.278 21.456 66.4289 22.3046 66.4111 23.478C66.3579 26.7658 65.2919 26.9025 65.2531 26.9066Z" fill="white"/>
</svg>
