<svg width="279" height="61" viewBox="0 0 279 61" fill="none" xmlns="http://www.w3.org/2000/svg">
<path d="M83.052 31V18.4H88.488C89.892 18.4 90.978 18.682 91.746 19.246C92.526 19.81 92.916 20.608 92.916 21.64C92.916 22.324 92.754 22.9 92.43 23.368C92.118 23.836 91.686 24.19 91.134 24.43C90.594 24.67 90 24.79 89.352 24.79L89.658 24.358C90.462 24.358 91.152 24.484 91.728 24.736C92.316 24.976 92.772 25.342 93.096 25.834C93.42 26.314 93.582 26.914 93.582 27.634C93.582 28.702 93.186 29.53 92.394 30.118C91.614 30.706 90.432 31 88.848 31H83.052ZM84.384 29.902H88.83C89.934 29.902 90.78 29.716 91.368 29.344C91.956 28.96 92.25 28.354 92.25 27.526C92.25 26.71 91.956 26.116 91.368 25.744C90.78 25.36 89.934 25.168 88.83 25.168H84.24V24.07H88.398C89.406 24.07 90.186 23.878 90.738 23.494C91.302 23.11 91.584 22.54 91.584 21.784C91.584 21.016 91.302 20.446 90.738 20.074C90.186 19.69 89.406 19.498 88.398 19.498H84.384V29.902ZM100.204 31.09C99.2923 31.09 98.4703 30.886 97.7383 30.478C97.0183 30.058 96.4483 29.488 96.0283 28.768C95.6083 28.036 95.3983 27.202 95.3983 26.266C95.3983 25.318 95.6083 24.484 96.0283 23.764C96.4483 23.044 97.0183 22.48 97.7383 22.072C98.4583 21.664 99.2803 21.46 100.204 21.46C101.14 21.46 101.968 21.664 102.688 22.072C103.42 22.48 103.99 23.044 104.398 23.764C104.818 24.484 105.028 25.318 105.028 26.266C105.028 27.202 104.818 28.036 104.398 28.768C103.99 29.488 103.42 30.058 102.688 30.478C101.956 30.886 101.128 31.09 100.204 31.09ZM100.204 29.956C100.888 29.956 101.494 29.806 102.022 29.506C102.55 29.194 102.964 28.762 103.264 28.21C103.576 27.646 103.732 26.998 103.732 26.266C103.732 25.522 103.576 24.874 103.264 24.322C102.964 23.77 102.55 23.344 102.022 23.044C101.494 22.732 100.894 22.576 100.222 22.576C99.5503 22.576 98.9503 22.732 98.4223 23.044C97.8943 23.344 97.4743 23.77 97.1623 24.322C96.8503 24.874 96.6943 25.522 96.6943 26.266C96.6943 26.998 96.8503 27.646 97.1623 28.21C97.4743 28.762 97.8943 29.194 98.4223 29.506C98.9503 29.806 99.5443 29.956 100.204 29.956ZM111.489 31.09C110.577 31.09 109.755 30.886 109.023 30.478C108.303 30.058 107.733 29.488 107.313 28.768C106.893 28.036 106.683 27.202 106.683 26.266C106.683 25.318 106.893 24.484 107.313 23.764C107.733 23.044 108.303 22.48 109.023 22.072C109.743 21.664 110.565 21.46 111.489 21.46C112.425 21.46 113.253 21.664 113.973 22.072C114.705 22.48 115.275 23.044 115.683 23.764C116.103 24.484 116.313 25.318 116.313 26.266C116.313 27.202 116.103 28.036 115.683 28.768C115.275 29.488 114.705 30.058 113.973 30.478C113.241 30.886 112.413 31.09 111.489 31.09ZM111.489 29.956C112.173 29.956 112.779 29.806 113.307 29.506C113.835 29.194 114.249 28.762 114.549 28.21C114.861 27.646 115.017 26.998 115.017 26.266C115.017 25.522 114.861 24.874 114.549 24.322C114.249 23.77 113.835 23.344 113.307 23.044C112.779 22.732 112.179 22.576 111.507 22.576C110.835 22.576 110.235 22.732 109.707 23.044C109.179 23.344 108.759 23.77 108.447 24.322C108.135 24.874 107.979 25.522 107.979 26.266C107.979 26.998 108.135 27.646 108.447 28.21C108.759 28.762 109.179 29.194 109.707 29.506C110.235 29.806 110.829 29.956 111.489 29.956ZM119.931 28.552L119.967 26.914L125.853 21.55H127.419L123.261 25.528L122.541 26.14L119.931 28.552ZM118.923 31V17.644H120.201V31H118.923ZM126.249 31L122.307 26.086L123.135 25.096L127.815 31H126.249ZM131.99 31.09C131.21 31.09 130.472 30.982 129.776 30.766C129.08 30.538 128.534 30.256 128.138 29.92L128.714 28.912C129.098 29.2 129.59 29.452 130.19 29.668C130.79 29.872 131.42 29.974 132.08 29.974C132.98 29.974 133.628 29.836 134.024 29.56C134.42 29.272 134.618 28.894 134.618 28.426C134.618 28.078 134.504 27.808 134.276 27.616C134.06 27.412 133.772 27.262 133.412 27.166C133.052 27.058 132.65 26.968 132.206 26.896C131.762 26.824 131.318 26.74 130.874 26.644C130.442 26.548 130.046 26.41 129.686 26.23C129.326 26.038 129.032 25.78 128.804 25.456C128.588 25.132 128.48 24.7 128.48 24.16C128.48 23.644 128.624 23.182 128.912 22.774C129.2 22.366 129.62 22.048 130.172 21.82C130.736 21.58 131.42 21.46 132.224 21.46C132.836 21.46 133.448 21.544 134.06 21.712C134.672 21.868 135.176 22.078 135.572 22.342L135.014 23.368C134.594 23.08 134.144 22.876 133.664 22.756C133.184 22.624 132.704 22.558 132.224 22.558C131.372 22.558 130.742 22.708 130.334 23.008C129.938 23.296 129.74 23.668 129.74 24.124C129.74 24.484 129.848 24.766 130.064 24.97C130.292 25.174 130.586 25.336 130.946 25.456C131.318 25.564 131.72 25.654 132.152 25.726C132.596 25.798 133.034 25.888 133.466 25.996C133.91 26.092 134.312 26.23 134.672 26.41C135.044 26.578 135.338 26.824 135.554 27.148C135.782 27.46 135.896 27.874 135.896 28.39C135.896 28.942 135.74 29.422 135.428 29.83C135.128 30.226 134.684 30.538 134.096 30.766C133.52 30.982 132.818 31.09 131.99 31.09Z" fill="white"/>
<path d="M66.0994 17.6048C65.9683 16.2377 65.9498 13.8832 66.865 13.0925C66.8813 13.078 66.8935 13.0571 66.9078 13.0391C67.656 12.7071 68.1738 12.2411 67.7673 11.6141L56.7305 7L38.8593 10.4474C38.8593 10.4474 36.8129 10.8533 36.9957 15.2647C37.0949 17.6657 37.6377 18.8448 38.1123 19.4252L36.6458 20.0384C36.2388 20.6654 36.7565 21.1315 37.5048 21.463C37.519 21.4815 37.531 21.5023 37.5476 21.5168C38.4622 22.3081 38.4446 24.6624 38.313 26.0297C35.0275 27.3241 36.2069 27.746 36.2069 27.746L36.9276 27.9879C36.4206 28.6236 35.9172 29.8289 36.0115 32.1149C36.1944 36.5255 37.8753 36.8299 37.8753 36.8299L49.5701 42.104L67.222 36.1717C67.222 36.1717 68.4018 35.7492 65.1154 34.4546C64.9832 33.0895 64.9648 30.7355 65.8815 29.9422C65.8984 29.9281 65.9107 29.9067 65.9243 29.889C66.6726 29.557 67.1899 29.0914 66.7833 28.4644L66.0161 28.143C66.5278 27.7148 67.2964 26.5959 67.4168 23.6895C67.4999 21.6903 67.124 20.5195 66.6889 19.8302L68.2054 19.321C68.2055 19.3218 69.3853 18.8993 66.0994 17.6048ZM51.3346 17.5483L54.303 16.7018L64.3345 13.8416L65.829 13.415C65.3515 14.6277 65.3715 16.2874 65.4505 17.3541C65.4678 17.5954 65.4878 17.8157 65.5071 17.9832L63.8712 18.5476L51.2098 22.9178L51.3346 17.5483ZM38.5837 21.8407L40.078 22.2672L49.7118 25.015L50.5535 25.2541L53.0774 25.9739L53.2019 31.3436L40.1887 26.8515L38.9058 26.4091C38.9246 26.2414 38.9446 26.0212 38.9626 25.7793C39.0412 24.7134 39.0616 23.0534 38.5837 21.8407ZM38.0031 15.0524C37.985 13.879 38.1357 13.0304 38.4403 12.599C38.6342 12.3237 38.8629 12.2663 39.0198 12.2663C39.1027 12.2663 39.1624 12.2823 39.1664 12.2823L46.8667 15.7654L50.7084 17.5033L50.5824 22.9104L39.8048 18.718L39.236 18.497C39.2151 18.4888 39.1868 18.4832 39.1649 18.4818C39.1205 18.4774 38.0549 18.3413 38.0031 15.0524ZM49.598 39.7614L38.2519 35.3478C38.2309 35.3394 38.2028 35.3337 38.181 35.3322C38.1358 35.3281 37.0698 35.1921 37.0182 31.904C36.9998 30.7292 37.1513 29.8814 37.4553 29.4496C37.6497 29.1742 37.8785 29.1169 38.0351 29.1169C38.1182 29.1169 38.1777 29.1323 38.182 29.1323C38.182 29.1323 38.1825 29.1323 38.182 29.1323L49.7232 34.3541L49.598 39.7614ZM64.4655 34.2042C64.4834 34.4463 64.5034 34.6663 64.5227 34.8341L50.2252 39.769L50.3501 34.3994L53.4068 33.5274L53.8583 33.6789L55.5502 32.9159L63.3495 30.6922L64.8446 30.2655C64.3666 31.478 64.3864 33.1383 64.4655 34.2042ZM65.2531 26.9066C65.2271 26.9074 65.2011 26.9123 65.1766 26.923L64.0983 27.3419L53.8308 31.3364L53.7052 25.9293L57.0739 24.4048L65.2307 20.714C65.2317 20.7133 65.6597 20.5814 65.9739 21.0247C66.278 21.456 66.4289 22.3046 66.4111 23.478C66.3579 26.7658 65.2919 26.9025 65.2531 26.9066Z" fill="white"/>
</svg>
