<svg width="279" height="61" viewBox="0 0 279 61" fill="none" xmlns="http://www.w3.org/2000/svg">
<path d="M90.954 27.634H83.934L82.422 31H81.036L86.796 18.4H88.11L93.87 31H92.466L90.954 27.634ZM90.468 26.554L87.444 19.786L84.42 26.554H90.468ZM100.562 21.46C101.45 21.46 102.254 21.664 102.974 22.072C103.694 22.468 104.258 23.032 104.666 23.764C105.074 24.496 105.278 25.33 105.278 26.266C105.278 27.202 105.074 28.036 104.666 28.768C104.258 29.5 103.694 30.07 102.974 30.478C102.254 30.886 101.45 31.09 100.562 31.09C99.7703 31.09 99.0563 30.922 98.4203 30.586C97.7963 30.25 97.2923 29.764 96.9083 29.128V31H95.6843V17.644H96.9623V23.332C97.3583 22.72 97.8623 22.258 98.4743 21.946C99.0983 21.622 99.7943 21.46 100.562 21.46ZM100.472 29.956C101.132 29.956 101.732 29.806 102.272 29.506C102.812 29.194 103.232 28.756 103.532 28.192C103.844 27.628 104 26.986 104 26.266C104 25.546 103.844 24.904 103.532 24.34C103.232 23.776 102.812 23.344 102.272 23.044C101.732 22.732 101.132 22.576 100.472 22.576C99.8003 22.576 99.1943 22.732 98.6543 23.044C98.1263 23.344 97.7063 23.776 97.3943 24.34C97.0943 24.904 96.9443 25.546 96.9443 26.266C96.9443 26.986 97.0943 27.628 97.3943 28.192C97.7063 28.756 98.1263 29.194 98.6543 29.506C99.1943 29.806 99.8003 29.956 100.472 29.956ZM111.754 31.09C110.842 31.09 110.02 30.886 109.288 30.478C108.556 30.058 107.98 29.482 107.56 28.75C107.14 28.018 106.93 27.19 106.93 26.266C106.93 25.342 107.14 24.514 107.56 23.782C107.98 23.05 108.556 22.48 109.288 22.072C110.02 21.664 110.842 21.46 111.754 21.46C112.666 21.46 113.488 21.664 114.22 22.072C114.952 22.48 115.522 23.05 115.93 23.782C116.35 24.514 116.56 25.342 116.56 26.266C116.56 27.19 116.35 28.018 115.93 28.75C115.522 29.482 114.952 30.058 114.22 30.478C113.488 30.886 112.666 31.09 111.754 31.09ZM111.754 29.956C112.426 29.956 113.026 29.806 113.554 29.506C114.094 29.194 114.514 28.756 114.814 28.192C115.114 27.628 115.264 26.986 115.264 26.266C115.264 25.546 115.114 24.904 114.814 24.34C114.514 23.776 114.094 23.344 113.554 23.044C113.026 22.732 112.426 22.576 111.754 22.576C111.082 22.576 110.476 22.732 109.936 23.044C109.408 23.344 108.988 23.776 108.676 24.34C108.376 24.904 108.226 25.546 108.226 26.266C108.226 26.986 108.376 27.628 108.676 28.192C108.988 28.756 109.408 29.194 109.936 29.506C110.476 29.806 111.082 29.956 111.754 29.956ZM127.701 21.532V31H126.477V29.272C126.141 29.848 125.679 30.298 125.091 30.622C124.503 30.934 123.831 31.09 123.075 31.09C121.839 31.09 120.861 30.748 120.141 30.064C119.433 29.368 119.079 28.354 119.079 27.022V21.532H120.357V26.896C120.357 27.892 120.603 28.648 121.095 29.164C121.587 29.68 122.289 29.938 123.201 29.938C124.197 29.938 124.983 29.638 125.559 29.038C126.135 28.426 126.423 27.58 126.423 26.5V21.532H127.701ZM136.266 30.424C136.026 30.64 135.726 30.808 135.366 30.928C135.018 31.036 134.652 31.09 134.268 31.09C133.38 31.09 132.696 30.85 132.216 30.37C131.736 29.89 131.496 29.212 131.496 28.336V22.612H129.804V21.532H131.496V19.462H132.774V21.532H135.654V22.612H132.774V28.264C132.774 28.828 132.912 29.26 133.188 29.56C133.476 29.848 133.884 29.992 134.412 29.992C134.676 29.992 134.928 29.95 135.168 29.866C135.42 29.782 135.636 29.662 135.816 29.506L136.266 30.424Z" fill="white"/>
<path d="M66.0994 17.6048C65.9683 16.2377 65.9498 13.8832 66.865 13.0925C66.8813 13.078 66.8935 13.0571 66.9078 13.0391C67.656 12.7071 68.1738 12.2411 67.7673 11.6141L56.7305 7L38.8593 10.4474C38.8593 10.4474 36.8129 10.8533 36.9957 15.2647C37.0949 17.6657 37.6377 18.8448 38.1123 19.4252L36.6458 20.0384C36.2388 20.6654 36.7565 21.1315 37.5048 21.463C37.519 21.4815 37.531 21.5023 37.5476 21.5168C38.4622 22.3081 38.4446 24.6624 38.313 26.0297C35.0275 27.3241 36.2069 27.746 36.2069 27.746L36.9276 27.9879C36.4206 28.6236 35.9172 29.8289 36.0115 32.1149C36.1944 36.5255 37.8753 36.8299 37.8753 36.8299L49.5701 42.104L67.222 36.1717C67.222 36.1717 68.4018 35.7492 65.1154 34.4546C64.9832 33.0895 64.9648 30.7355 65.8815 29.9422C65.8984 29.9281 65.9107 29.9067 65.9243 29.889C66.6726 29.557 67.1899 29.0914 66.7833 28.4644L66.0161 28.143C66.5278 27.7148 67.2964 26.5959 67.4168 23.6895C67.4999 21.6903 67.124 20.5195 66.6889 19.8302L68.2054 19.321C68.2055 19.3218 69.3853 18.8993 66.0994 17.6048ZM51.3346 17.5483L54.303 16.7018L64.3345 13.8416L65.829 13.415C65.3515 14.6277 65.3715 16.2874 65.4505 17.3541C65.4678 17.5954 65.4878 17.8157 65.5071 17.9832L63.8712 18.5476L51.2098 22.9178L51.3346 17.5483ZM38.5837 21.8407L40.078 22.2672L49.7118 25.015L50.5535 25.2541L53.0774 25.9739L53.2019 31.3436L40.1887 26.8515L38.9058 26.4091C38.9246 26.2414 38.9446 26.0212 38.9626 25.7793C39.0412 24.7134 39.0616 23.0534 38.5837 21.8407ZM38.0031 15.0524C37.985 13.879 38.1357 13.0304 38.4403 12.599C38.6342 12.3237 38.8629 12.2663 39.0198 12.2663C39.1027 12.2663 39.1624 12.2823 39.1664 12.2823L46.8667 15.7654L50.7084 17.5033L50.5824 22.9104L39.8048 18.718L39.236 18.497C39.2151 18.4888 39.1868 18.4832 39.1649 18.4818C39.1205 18.4774 38.0549 18.3413 38.0031 15.0524ZM49.598 39.7614L38.2519 35.3478C38.2309 35.3394 38.2028 35.3337 38.181 35.3322C38.1358 35.3281 37.0698 35.1921 37.0182 31.904C36.9998 30.7292 37.1513 29.8814 37.4553 29.4496C37.6497 29.1742 37.8785 29.1169 38.0351 29.1169C38.1182 29.1169 38.1777 29.1323 38.182 29.1323C38.182 29.1323 38.1825 29.1323 38.182 29.1323L49.7232 34.3541L49.598 39.7614ZM64.4655 34.2042C64.4834 34.4463 64.5034 34.6663 64.5227 34.8341L50.2252 39.769L50.3501 34.3994L53.4068 33.5274L53.8583 33.6789L55.5502 32.9159L63.3495 30.6922L64.8446 30.2655C64.3666 31.478 64.3864 33.1383 64.4655 34.2042ZM65.2531 26.9066C65.2271 26.9074 65.2011 26.9123 65.1766 26.923L64.0983 27.3419L53.8308 31.3364L53.7052 25.9293L57.0739 24.4048L65.2307 20.714C65.2317 20.7133 65.6597 20.5814 65.9739 21.0247C66.278 21.456 66.4289 22.3046 66.4111 23.478C66.3579 26.7658 65.2919 26.9025 65.2531 26.9066Z" fill="white"/>
</svg>
