<svg width="279" height="61" viewBox="0 0 279 61" fill="none" xmlns="http://www.w3.org/2000/svg">
<path d="M88.524 31.108C87.276 31.108 86.148 30.832 85.14 30.28C84.144 29.728 83.358 28.966 82.782 27.994C82.218 27.01 81.936 25.912 81.936 24.7C81.936 23.488 82.218 22.396 82.782 21.424C83.358 20.44 84.15 19.672 85.158 19.12C86.166 18.568 87.294 18.292 88.542 18.292C89.478 18.292 90.342 18.448 91.134 18.76C91.926 19.072 92.598 19.528 93.15 20.128L92.304 20.974C91.32 19.978 90.078 19.48 88.578 19.48C87.582 19.48 86.676 19.708 85.86 20.164C85.044 20.62 84.402 21.244 83.934 22.036C83.478 22.828 83.25 23.716 83.25 24.7C83.25 25.684 83.478 26.572 83.934 27.364C84.402 28.156 85.044 28.78 85.86 29.236C86.676 29.692 87.582 29.92 88.578 29.92C90.09 29.92 91.332 29.416 92.304 28.408L93.15 29.254C92.598 29.854 91.92 30.316 91.116 30.64C90.324 30.952 89.46 31.108 88.524 31.108ZM99.1676 31.09C98.2556 31.09 97.4336 30.886 96.7016 30.478C95.9696 30.058 95.3936 29.482 94.9736 28.75C94.5536 28.018 94.3436 27.19 94.3436 26.266C94.3436 25.342 94.5536 24.514 94.9736 23.782C95.3936 23.05 95.9696 22.48 96.7016 22.072C97.4336 21.664 98.2556 21.46 99.1676 21.46C100.08 21.46 100.902 21.664 101.634 22.072C102.366 22.48 102.936 23.05 103.344 23.782C103.764 24.514 103.974 25.342 103.974 26.266C103.974 27.19 103.764 28.018 103.344 28.75C102.936 29.482 102.366 30.058 101.634 30.478C100.902 30.886 100.08 31.09 99.1676 31.09ZM99.1676 29.956C99.8396 29.956 100.44 29.806 100.968 29.506C101.508 29.194 101.928 28.756 102.228 28.192C102.528 27.628 102.678 26.986 102.678 26.266C102.678 25.546 102.528 24.904 102.228 24.34C101.928 23.776 101.508 23.344 100.968 23.044C100.44 22.732 99.8396 22.576 99.1676 22.576C98.4956 22.576 97.8896 22.732 97.3496 23.044C96.8216 23.344 96.4016 23.776 96.0896 24.34C95.7896 24.904 95.6396 25.546 95.6396 26.266C95.6396 26.986 95.7896 27.628 96.0896 28.192C96.4016 28.756 96.8216 29.194 97.3496 29.506C97.8896 29.806 98.4956 29.956 99.1676 29.956ZM111.407 21.46C112.595 21.46 113.537 21.808 114.233 22.504C114.941 23.188 115.295 24.19 115.295 25.51V31H114.017V25.636C114.017 24.652 113.771 23.902 113.279 23.386C112.787 22.87 112.085 22.612 111.173 22.612C110.153 22.612 109.343 22.918 108.743 23.53C108.155 24.13 107.861 24.964 107.861 26.032V31H106.583V21.532H107.807V23.278C108.155 22.702 108.635 22.258 109.247 21.946C109.871 21.622 110.591 21.46 111.407 21.46ZM123.75 30.424C123.51 30.64 123.21 30.808 122.85 30.928C122.502 31.036 122.136 31.09 121.752 31.09C120.864 31.09 120.18 30.85 119.7 30.37C119.22 29.89 118.98 29.212 118.98 28.336V22.612H117.288V21.532H118.98V19.462H120.258V21.532H123.138V22.612H120.258V28.264C120.258 28.828 120.396 29.26 120.672 29.56C120.96 29.848 121.368 29.992 121.896 29.992C122.16 29.992 122.412 29.95 122.652 29.866C122.904 29.782 123.12 29.662 123.3 29.506L123.75 30.424ZM129.389 21.46C130.625 21.46 131.573 21.772 132.233 22.396C132.893 23.008 133.223 23.92 133.223 25.132V31H131.999V29.524C131.711 30.016 131.285 30.4 130.721 30.676C130.169 30.952 129.509 31.09 128.741 31.09C127.685 31.09 126.845 30.838 126.221 30.334C125.597 29.83 125.285 29.164 125.285 28.336C125.285 27.532 125.573 26.884 126.149 26.392C126.737 25.9 127.667 25.654 128.939 25.654H131.945V25.078C131.945 24.262 131.717 23.644 131.261 23.224C130.805 22.792 130.139 22.576 129.263 22.576C128.663 22.576 128.087 22.678 127.535 22.882C126.983 23.074 126.509 23.344 126.113 23.692L125.537 22.738C126.017 22.33 126.593 22.018 127.265 21.802C127.937 21.574 128.645 21.46 129.389 21.46ZM128.939 30.082C129.659 30.082 130.277 29.92 130.793 29.596C131.309 29.26 131.693 28.78 131.945 28.156V26.608H128.975C127.355 26.608 126.545 27.172 126.545 28.3C126.545 28.852 126.755 29.29 127.175 29.614C127.595 29.926 128.183 30.082 128.939 30.082ZM140.653 31.09C139.717 31.09 138.877 30.886 138.133 30.478C137.401 30.07 136.825 29.5 136.405 28.768C135.985 28.024 135.775 27.19 135.775 26.266C135.775 25.342 135.985 24.514 136.405 23.782C136.825 23.05 137.401 22.48 138.133 22.072C138.877 21.664 139.717 21.46 140.653 21.46C141.469 21.46 142.195 21.622 142.831 21.946C143.479 22.258 143.989 22.72 144.361 23.332L143.407 23.98C143.095 23.512 142.699 23.164 142.219 22.936C141.739 22.696 141.217 22.576 140.653 22.576C139.969 22.576 139.351 22.732 138.799 23.044C138.259 23.344 137.833 23.776 137.521 24.34C137.221 24.904 137.071 25.546 137.071 26.266C137.071 26.998 137.221 27.646 137.521 28.21C137.833 28.762 138.259 29.194 138.799 29.506C139.351 29.806 139.969 29.956 140.653 29.956C141.217 29.956 141.739 29.842 142.219 29.614C142.699 29.386 143.095 29.038 143.407 28.57L144.361 29.218C143.989 29.83 143.479 30.298 142.831 30.622C142.183 30.934 141.457 31.09 140.653 31.09ZM151.963 30.424C151.723 30.64 151.423 30.808 151.063 30.928C150.715 31.036 150.349 31.09 149.965 31.09C149.077 31.09 148.393 30.85 147.913 30.37C147.433 29.89 147.193 29.212 147.193 28.336V22.612H145.501V21.532H147.193V19.462H148.471V21.532H151.351V22.612H148.471V28.264C148.471 28.828 148.609 29.26 148.885 29.56C149.173 29.848 149.581 29.992 150.109 29.992C150.373 29.992 150.625 29.95 150.865 29.866C151.117 29.782 151.333 29.662 151.513 29.506L151.963 30.424Z" fill="white"/>
<path d="M66.0994 17.6048C65.9683 16.2377 65.9498 13.8832 66.865 13.0925C66.8813 13.078 66.8935 13.0571 66.9078 13.0391C67.656 12.7071 68.1738 12.2411 67.7673 11.6141L56.7305 7L38.8593 10.4474C38.8593 10.4474 36.8129 10.8533 36.9957 15.2647C37.0949 17.6657 37.6377 18.8448 38.1123 19.4252L36.6458 20.0384C36.2388 20.6654 36.7565 21.1315 37.5048 21.463C37.519 21.4815 37.531 21.5023 37.5476 21.5168C38.4622 22.3081 38.4446 24.6624 38.313 26.0297C35.0275 27.3241 36.2069 27.746 36.2069 27.746L36.9276 27.9879C36.4206 28.6236 35.9172 29.8289 36.0115 32.1149C36.1944 36.5255 37.8753 36.8299 37.8753 36.8299L49.5701 42.104L67.222 36.1717C67.222 36.1717 68.4018 35.7492 65.1154 34.4546C64.9832 33.0895 64.9648 30.7355 65.8815 29.9422C65.8984 29.9281 65.9107 29.9067 65.9243 29.889C66.6726 29.557 67.1899 29.0914 66.7833 28.4644L66.0161 28.143C66.5278 27.7148 67.2964 26.5959 67.4168 23.6895C67.4999 21.6903 67.124 20.5195 66.6889 19.8302L68.2054 19.321C68.2055 19.3218 69.3853 18.8993 66.0994 17.6048ZM51.3346 17.5483L54.303 16.7018L64.3345 13.8416L65.829 13.415C65.3515 14.6277 65.3715 16.2874 65.4505 17.3541C65.4678 17.5954 65.4878 17.8157 65.5071 17.9832L63.8712 18.5476L51.2098 22.9178L51.3346 17.5483ZM38.5837 21.8407L40.078 22.2672L49.7118 25.015L50.5535 25.2541L53.0774 25.9739L53.2019 31.3436L40.1887 26.8515L38.9058 26.4091C38.9246 26.2414 38.9446 26.0212 38.9626 25.7793C39.0412 24.7134 39.0616 23.0534 38.5837 21.8407ZM38.0031 15.0524C37.985 13.879 38.1357 13.0304 38.4403 12.599C38.6342 12.3237 38.8629 12.2663 39.0198 12.2663C39.1027 12.2663 39.1624 12.2823 39.1664 12.2823L46.8667 15.7654L50.7084 17.5033L50.5824 22.9104L39.8048 18.718L39.236 18.497C39.2151 18.4888 39.1868 18.4832 39.1649 18.4818C39.1205 18.4774 38.0549 18.3413 38.0031 15.0524ZM49.598 39.7614L38.2519 35.3478C38.2309 35.3394 38.2028 35.3337 38.181 35.3322C38.1358 35.3281 37.0698 35.1921 37.0182 31.904C36.9998 30.7292 37.1513 29.8814 37.4553 29.4496C37.6497 29.1742 37.8785 29.1169 38.0351 29.1169C38.1182 29.1169 38.1777 29.1323 38.182 29.1323C38.182 29.1323 38.1825 29.1323 38.182 29.1323L49.7232 34.3541L49.598 39.7614ZM64.4655 34.2042C64.4834 34.4463 64.5034 34.6663 64.5227 34.8341L50.2252 39.769L50.3501 34.3994L53.4068 33.5274L53.8583 33.6789L55.5502 32.9159L63.3495 30.6922L64.8446 30.2655C64.3666 31.478 64.3864 33.1383 64.4655 34.2042ZM65.2531 26.9066C65.2271 26.9074 65.2011 26.9123 65.1766 26.923L64.0983 27.3419L53.8308 31.3364L53.7052 25.9293L57.0739 24.4048L65.2307 20.714C65.2317 20.7133 65.6597 20.5814 65.9739 21.0247C66.278 21.456 66.4289 22.3046 66.4111 23.478C66.3579 26.7658 65.2919 26.9025 65.2531 26.9066Z" fill="white"/>
</svg>
