<svg width="279" height="61" viewBox="0 0 279 61" fill="none" xmlns="http://www.w3.org/2000/svg">
<path d="M84.402 31.108C83.682 31.108 83.016 30.952 82.404 30.64C81.792 30.328 81.294 29.884 80.91 29.308L81.702 28.408C82.398 29.44 83.304 29.956 84.42 29.956C85.98 29.956 86.76 29.032 86.76 27.184V19.552H82.152V18.4H88.074V27.13C88.074 28.45 87.762 29.446 87.138 30.118C86.526 30.778 85.614 31.108 84.402 31.108ZM95.6696 31.09C94.7576 31.09 93.9356 30.886 93.2036 30.478C92.4716 30.058 91.8956 29.482 91.4756 28.75C91.0556 28.018 90.8456 27.19 90.8456 26.266C90.8456 25.342 91.0556 24.514 91.4756 23.782C91.8956 23.05 92.4716 22.48 93.2036 22.072C93.9356 21.664 94.7576 21.46 95.6696 21.46C96.5816 21.46 97.4036 21.664 98.1356 22.072C98.8676 22.48 99.4376 23.05 99.8456 23.782C100.266 24.514 100.476 25.342 100.476 26.266C100.476 27.19 100.266 28.018 99.8456 28.75C99.4376 29.482 98.8676 30.058 98.1356 30.478C97.4036 30.886 96.5816 31.09 95.6696 31.09ZM95.6696 29.956C96.3416 29.956 96.9416 29.806 97.4696 29.506C98.0096 29.194 98.4296 28.756 98.7296 28.192C99.0296 27.628 99.1796 26.986 99.1796 26.266C99.1796 25.546 99.0296 24.904 98.7296 24.34C98.4296 23.776 98.0096 23.344 97.4696 23.044C96.9416 22.732 96.3416 22.576 95.6696 22.576C94.9976 22.576 94.3916 22.732 93.8516 23.044C93.3236 23.344 92.9036 23.776 92.5916 24.34C92.2916 24.904 92.1416 25.546 92.1416 26.266C92.1416 26.986 92.2916 27.628 92.5916 28.192C92.9036 28.756 93.3236 29.194 93.8516 29.506C94.3916 29.806 94.9976 29.956 95.6696 29.956ZM103.085 21.532H104.363V31H103.085V21.532ZM103.733 19.462C103.469 19.462 103.247 19.372 103.067 19.192C102.887 19.012 102.797 18.796 102.797 18.544C102.797 18.304 102.887 18.094 103.067 17.914C103.247 17.734 103.469 17.644 103.733 17.644C103.997 17.644 104.219 17.734 104.399 17.914C104.579 18.082 104.669 18.286 104.669 18.526C104.669 18.79 104.579 19.012 104.399 19.192C104.219 19.372 103.997 19.462 103.733 19.462ZM112.743 21.46C113.931 21.46 114.873 21.808 115.569 22.504C116.277 23.188 116.631 24.19 116.631 25.51V31H115.353V25.636C115.353 24.652 115.107 23.902 114.615 23.386C114.123 22.87 113.421 22.612 112.509 22.612C111.489 22.612 110.679 22.918 110.079 23.53C109.491 24.13 109.197 24.964 109.197 26.032V31H107.919V21.532H109.143V23.278C109.491 22.702 109.971 22.258 110.583 21.946C111.207 21.622 111.927 21.46 112.743 21.46ZM130.157 31.108C128.525 31.108 127.253 30.64 126.341 29.704C125.429 28.768 124.973 27.406 124.973 25.618V18.4H126.305V25.564C126.305 27.028 126.635 28.12 127.295 28.84C127.955 29.56 128.909 29.92 130.157 29.92C131.417 29.92 132.377 29.56 133.037 28.84C133.697 28.12 134.027 27.028 134.027 25.564V18.4H135.323V25.618C135.323 27.406 134.867 28.768 133.955 29.704C133.055 30.64 131.789 31.108 130.157 31.108ZM141.605 31.09C140.837 31.09 140.099 30.982 139.391 30.766C138.695 30.538 138.149 30.256 137.753 29.92L138.329 28.912C138.725 29.224 139.223 29.482 139.823 29.686C140.423 29.878 141.047 29.974 141.695 29.974C142.559 29.974 143.195 29.842 143.603 29.578C144.023 29.302 144.233 28.918 144.233 28.426C144.233 28.078 144.119 27.808 143.891 27.616C143.663 27.412 143.375 27.262 143.027 27.166C142.679 27.058 142.217 26.956 141.641 26.86C140.873 26.716 140.255 26.572 139.787 26.428C139.319 26.272 138.917 26.014 138.581 25.654C138.257 25.294 138.095 24.796 138.095 24.16C138.095 23.368 138.425 22.72 139.085 22.216C139.745 21.712 140.663 21.46 141.839 21.46C142.451 21.46 143.063 21.544 143.675 21.712C144.287 21.868 144.791 22.078 145.187 22.342L144.629 23.368C143.849 22.828 142.919 22.558 141.839 22.558C141.023 22.558 140.405 22.702 139.985 22.99C139.577 23.278 139.373 23.656 139.373 24.124C139.373 24.484 139.487 24.772 139.715 24.988C139.955 25.204 140.249 25.366 140.597 25.474C140.945 25.57 141.425 25.672 142.037 25.78C142.793 25.924 143.399 26.068 143.855 26.212C144.311 26.356 144.701 26.602 145.025 26.95C145.349 27.298 145.511 27.778 145.511 28.39C145.511 29.218 145.163 29.878 144.467 30.37C143.783 30.85 142.829 31.09 141.605 31.09Z" fill="white"/>
<path d="M66.0994 17.6048C65.9683 16.2377 65.9498 13.8832 66.865 13.0925C66.8813 13.078 66.8935 13.0571 66.9078 13.0391C67.656 12.7071 68.1738 12.2411 67.7673 11.6141L56.7305 7L38.8593 10.4474C38.8593 10.4474 36.8129 10.8533 36.9957 15.2647C37.0949 17.6657 37.6377 18.8448 38.1123 19.4252L36.6458 20.0384C36.2388 20.6654 36.7565 21.1315 37.5048 21.463C37.519 21.4815 37.531 21.5023 37.5476 21.5168C38.4622 22.3081 38.4446 24.6624 38.313 26.0297C35.0275 27.3241 36.2069 27.746 36.2069 27.746L36.9276 27.9879C36.4206 28.6236 35.9172 29.8289 36.0115 32.1149C36.1944 36.5255 37.8753 36.8299 37.8753 36.8299L49.5701 42.104L67.222 36.1717C67.222 36.1717 68.4018 35.7492 65.1154 34.4546C64.9832 33.0895 64.9648 30.7355 65.8815 29.9422C65.8984 29.9281 65.9107 29.9067 65.9243 29.889C66.6726 29.557 67.1899 29.0914 66.7833 28.4644L66.0161 28.143C66.5278 27.7148 67.2964 26.5959 67.4168 23.6895C67.4999 21.6903 67.124 20.5195 66.6889 19.8302L68.2054 19.321C68.2055 19.3218 69.3853 18.8993 66.0994 17.6048ZM51.3346 17.5483L54.303 16.7018L64.3345 13.8416L65.829 13.415C65.3515 14.6277 65.3715 16.2874 65.4505 17.3541C65.4678 17.5954 65.4878 17.8157 65.5071 17.9832L63.8712 18.5476L51.2098 22.9178L51.3346 17.5483ZM38.5837 21.8407L40.078 22.2672L49.7118 25.015L50.5535 25.2541L53.0774 25.9739L53.2019 31.3436L40.1887 26.8515L38.9058 26.4091C38.9246 26.2414 38.9446 26.0212 38.9626 25.7793C39.0412 24.7134 39.0616 23.0534 38.5837 21.8407ZM38.0031 15.0524C37.985 13.879 38.1357 13.0304 38.4403 12.599C38.6342 12.3237 38.8629 12.2663 39.0198 12.2663C39.1027 12.2663 39.1624 12.2823 39.1664 12.2823L46.8667 15.7654L50.7084 17.5033L50.5824 22.9104L39.8048 18.718L39.236 18.497C39.2151 18.4888 39.1868 18.4832 39.1649 18.4818C39.1205 18.4774 38.0549 18.3413 38.0031 15.0524ZM49.598 39.7614L38.2519 35.3478C38.2309 35.3394 38.2028 35.3337 38.181 35.3322C38.1358 35.3281 37.0698 35.1921 37.0182 31.904C36.9998 30.7292 37.1513 29.8814 37.4553 29.4496C37.6497 29.1742 37.8785 29.1169 38.0351 29.1169C38.1182 29.1169 38.1777 29.1323 38.182 29.1323C38.182 29.1323 38.1825 29.1323 38.182 29.1323L49.7232 34.3541L49.598 39.7614ZM64.4655 34.2042C64.4834 34.4463 64.5034 34.6663 64.5227 34.8341L50.2252 39.769L50.3501 34.3994L53.4068 33.5274L53.8583 33.6789L55.5502 32.9159L63.3495 30.6922L64.8446 30.2655C64.3666 31.478 64.3864 33.1383 64.4655 34.2042ZM65.2531 26.9066C65.2271 26.9074 65.2011 26.9123 65.1766 26.923L64.0983 27.3419L53.8308 31.3364L53.7052 25.9293L57.0739 24.4048L65.2307 20.714C65.2317 20.7133 65.6597 20.5814 65.9739 21.0247C66.278 21.456 66.4289 22.3046 66.4111 23.478C66.3579 26.7658 65.2919 26.9025 65.2531 26.9066Z" fill="white"/>
</svg>
