<svg width="71.000000" height="71.000000" viewBox="0 0 71 71" fill="none" xmlns="http://www.w3.org/2000/svg" xmlns:xlink="http://www.w3.org/1999/xlink">
	<desc>
			Created with Pixso.
	</desc>
	<defs/>
	<path id="Vector" d="M20.26 -0.54C24.07 -0.72 25.28 -0.75 35 -0.75C44.71 -0.75 45.92 -0.71 49.73 -0.54C53.54 -0.37 56.14 0.24 58.41 1.12C60.8 2.02 62.96 3.43 64.75 5.25C66.57 7.03 67.97 9.19 68.87 11.58C69.75 13.85 70.36 16.45 70.53 20.25C70.71 24.07 70.75 25.29 70.75 35C70.75 44.71 70.7 45.92 70.53 49.73C70.36 53.54 69.75 56.14 68.87 58.41C67.97 60.8 66.56 62.96 64.75 64.75C62.96 66.57 60.8 67.97 58.41 68.87C56.14 69.75 53.54 70.36 49.74 70.53C45.92 70.71 44.71 70.75 35 70.75C25.28 70.75 24.07 70.7 20.26 70.53C16.45 70.36 13.85 69.75 11.58 68.87C9.19 67.97 7.03 66.56 5.24 64.75C3.43 62.96 2.02 60.8 1.12 58.41C0.24 56.14 -0.37 53.54 -0.54 49.74C-0.72 45.92 -0.75 44.7 -0.75 35C-0.75 25.28 -0.71 24.07 -0.54 20.26C-0.37 16.45 0.24 13.85 1.12 11.58C2.02 9.19 3.43 7.03 5.25 5.24C7.03 3.43 9.19 2.02 11.58 1.12C13.85 0.24 16.45 -0.36 20.25 -0.54L20.26 -0.54ZM49.44 5.89C45.67 5.72 44.54 5.69 35 5.69C25.45 5.69 24.32 5.72 20.55 5.89C17.06 6.05 15.17 6.64 13.91 7.13C12.24 7.78 11.05 8.55 9.8 9.8C8.61 10.95 7.7 12.36 7.13 13.91C6.64 15.17 6.05 17.06 5.89 20.55C5.72 24.32 5.69 25.45 5.69 35C5.69 44.54 5.72 45.67 5.89 49.44C6.05 52.93 6.64 54.82 7.13 56.08C7.7 57.63 8.61 59.04 9.8 60.19C10.95 61.38 12.36 62.29 13.91 62.86C15.17 63.35 17.06 63.94 20.55 64.1C24.32 64.27 25.45 64.3 35 64.3C44.54 64.3 45.67 64.27 49.44 64.1C52.93 63.94 54.82 63.35 56.08 62.86C57.75 62.21 58.94 61.44 60.19 60.19C61.38 59.04 62.29 57.63 62.86 56.08C63.35 54.82 63.94 52.93 64.1 49.44C64.27 45.67 64.3 44.54 64.3 35C64.3 25.45 64.27 24.32 64.1 20.55C63.94 17.06 63.35 15.17 62.86 13.91C62.21 12.24 61.44 11.05 60.19 9.8C59.04 8.61 57.63 7.7 56.08 7.13C54.82 6.64 52.93 6.05 49.44 5.89ZM30.43 46.02C32.98 47.08 35.82 47.22 38.46 46.42C41.11 45.62 43.39 43.93 44.93 41.63C46.46 39.34 47.15 36.58 46.88 33.83C46.6 31.08 45.39 28.51 43.43 26.56C42.18 25.31 40.67 24.36 39.01 23.77C37.35 23.17 35.58 22.96 33.83 23.13C32.07 23.3 30.38 23.86 28.87 24.77C27.35 25.67 26.06 26.9 25.08 28.37C24.1 29.84 23.46 31.5 23.2 33.25C22.94 34.99 23.07 36.77 23.58 38.46C24.09 40.15 24.97 41.7 26.16 43.01C27.34 44.31 28.8 45.34 30.43 46.02ZM22 22C23.71 20.3 25.73 18.94 27.96 18.02C30.19 17.09 32.58 16.62 35 16.62C37.41 16.62 39.8 17.09 42.03 18.02C44.26 18.94 46.28 20.3 47.99 22C49.7 23.71 51.05 25.73 51.97 27.96C52.9 30.19 53.37 32.58 53.37 35C53.37 37.41 52.9 39.8 51.97 42.03C51.05 44.26 49.7 46.28 47.99 47.99C44.54 51.43 39.87 53.37 35 53.37C30.12 53.37 25.45 51.43 22 47.99C18.56 44.54 16.62 39.87 16.62 35C16.62 30.12 18.56 25.45 22 22ZM57.45 19.36C57.87 18.96 58.21 18.48 58.44 17.95C58.68 17.41 58.8 16.84 58.81 16.26C58.82 15.68 58.71 15.1 58.49 14.56C58.27 14.02 57.95 13.53 57.54 13.12C57.13 12.71 56.64 12.39 56.1 12.17C55.56 11.95 54.98 11.84 54.4 11.85C53.82 11.86 53.25 11.98 52.71 12.22C52.18 12.45 51.7 12.79 51.3 13.21C50.53 14.04 50.1 15.13 50.12 16.26C50.14 17.39 50.59 18.47 51.39 19.27C52.19 20.07 53.27 20.52 54.4 20.54C55.53 20.56 56.62 20.13 57.45 19.36Z" fill="#241400" fill-opacity="1.000000" fill-rule="evenodd"/>
</svg>
