<svg width="89.000000" height="72.000000" viewBox="0 0 89 72" fill="none" xmlns="http://www.w3.org/2000/svg" xmlns:xlink="http://www.w3.org/1999/xlink">
	<desc>
			Created with Pixso.
	</desc>
	<defs/>
	<path id="Vector" d="M88.56 8.54C85.31 9.98 81.81 10.95 78.13 11.39C81.92 9.12 84.76 5.55 86.12 1.34C82.55 3.46 78.65 4.95 74.58 5.75C71.84 2.82 68.22 0.89 64.27 0.24C60.32 -0.41 56.26 0.26 52.73 2.15C49.2 4.04 46.4 7.04 44.75 10.69C43.1 14.34 42.7 18.43 43.62 22.32C36.39 21.96 29.32 20.08 22.87 16.81C16.42 13.54 10.73 8.95 6.16 3.34C4.6 6.03 3.7 9.15 3.7 12.47C3.7 15.46 4.44 18.41 5.85 21.05C7.26 23.69 9.3 25.94 11.79 27.6C8.9 27.51 6.08 26.73 3.56 25.32L3.56 25.56C3.56 29.75 5.01 33.82 7.66 37.07C10.32 40.32 14.02 42.54 18.13 43.38C15.46 44.1 12.65 44.21 9.93 43.69C11.09 47.3 13.35 50.46 16.39 52.72C19.43 54.98 23.11 56.23 26.9 56.3C20.46 61.36 12.52 64.1 4.33 64.08C2.88 64.08 1.43 64 0 63.83C8.3 69.17 17.97 72.01 27.85 71.99C61.27 71.99 79.55 44.31 79.55 20.3C79.55 19.52 79.53 18.73 79.49 17.95C83.05 15.38 86.12 12.19 88.55 8.55L88.56 8.54Z" fill="#241400" fill-opacity="1.000000" fill-rule="nonzero"/>
</svg>
